<svg width="343.971875px" height="125px" xmlns="http://www.w3.org/2000/svg" viewBox="78.0140625 12.5 343.971875 125" style="background: rgba(0, 0, 0, 0);" preserveAspectRatio="xMidYMid"><defs><linearGradient id="editing-outline-gradient" x1="-0.41354545764260087" x2="1.4135454576426008" y1="0.09326335692419985" y2="0.9067366430758002"><stop offset="0" stop-color="#ee4208"></stop><stop offset="1" stop-color="#4139ff"></stop></linearGradient><filter id="editing-outline" x="-100%" y="-100%" width="300%" height="300%"><feMorphology in="SourceGraphic" operator="dilate" radius="1" result="outline"></feMorphology><feComposite operator="out" in="outline" in2="SourceAlpha"></feComposite></filter></defs><g filter="url(#editing-outline)"><g transform="translate(131.04497623443604, 99.77000045776367)"><path d="M4.47-41.97L4.47-47.38L38.41-47.38L38.41-33.97L32-33.97L32-41.97L15.09-41.97L15.09-26.75L31.38-26.75L31.38-21.50L15.09-21.50L15.09-5.38L19.84-5.38L19.84 0L4.47 0L4.47-5.38L8.97-5.38L8.97-41.97L4.47-41.97ZM65.25-32.56L65.25-25.53L59.31-25.53L59.31-27.53L59.31-27.53Q58.28-27.53 57.20-27.14L57.20-27.14L57.20-27.14Q56.13-26.75 55.19-25.95L55.19-25.95L55.19-25.95Q54.25-25.16 53.55-23.92L53.55-23.92L53.55-23.92Q52.84-22.69 52.53-21L52.53-21L52.53-5.38L58.03-5.38L58.03 0L41.97 0L41.97-5.38L46.44-5.38L46.47-27L41.97-27L41.97-32.38L52.31-32.38L52.31-27.91L52.31-27.91Q52.88-28.91 53.58-29.77L53.58-29.77L53.58-29.77Q54.28-30.63 55.14-31.27L55.14-31.27L55.14-31.27Q56-31.91 57.05-32.27L57.05-32.27L57.05-32.27Q58.09-32.63 59.31-32.63L59.31-32.63L59.31-32.63Q60.94-32.63 62.38-32.63L62.38-32.63L62.38-32.63Q63.81-32.63 65.25-32.56L65.25-32.56ZM100.78-15.44L77.47-15.44L77.47-15.44Q77.47-14.06 77.67-12.92L77.67-12.92L77.67-12.92Q77.88-11.78 78.25-10.75L78.25-10.75L78.25-10.75Q79.41-7.63 81.95-6.05L81.95-6.05L81.95-6.05Q84.50-4.47 87.72-4.47L87.72-4.47L87.72-4.47Q90.25-4.47 92.64-5.17L92.64-5.17L92.64-5.17Q95.03-5.88 97.66-7.38L97.66-7.38L100-3.41L100-3.41Q96.81-1.22 93.59-0.16L93.59-0.16L93.59-0.16Q90.38 0.91 86.91 0.91L86.91 0.91L86.91 0.91Q83.63 0.91 80.83-0.19L80.83-0.19L80.83-0.19Q78.03-1.28 76.02-3.44L76.02-3.44L76.02-3.44Q74-5.59 72.86-8.81L72.86-8.81L72.86-8.81Q71.72-12.03 71.72-16.31L71.72-16.31L71.72-16.31Q71.72-19.78 72.69-22.86L72.69-22.86L72.69-22.86Q73.66-25.94 75.58-28.23L75.58-28.23L75.58-28.23Q77.50-30.53 80.34-31.88L80.34-31.88L80.34-31.88Q83.19-33.22 86.97-33.22L86.97-33.22L86.97-33.22Q90.63-33.22 93.08-32.11L93.08-32.11L93.08-32.11Q95.53-31 97.08-29.17L97.08-29.17L97.08-29.17Q98.63-27.34 99.42-25L99.42-25L99.42-25Q100.22-22.66 100.53-20.22L100.53-20.22L100.53-20.22Q100.69-19.03 100.73-17.81L100.73-17.81L100.73-17.81Q100.78-16.59 100.78-15.44L100.78-15.44ZM86.56-28.34L86.56-28.34L86.56-28.34Q84.53-28.34 83.02-27.77L83.02-27.77L83.02-27.77Q81.50-27.19 80.44-26.11L80.44-26.11L80.44-26.11Q79.38-25.03 78.73-23.47L78.73-23.47L78.73-23.47Q78.09-21.91 77.78-19.97L77.78-19.97L94.56-19.97L94.56-19.97Q94.44-21.78 93.98-23.31L93.98-23.31L93.98-23.31Q93.53-24.84 92.59-25.97L92.59-25.97L92.59-25.97Q91.66-27.09 90.19-27.72L90.19-27.72L90.19-27.72Q88.72-28.34 86.56-28.34ZM137.94-23.75L132.06-23.75L132.06-23.75Q130.75-26.09 128.73-27.19L128.73-27.19L128.73-27.19Q126.72-28.28 124.06-28.28L124.06-28.28L124.06-28.28Q122.03-28.28 120.25-27.44L120.25-27.44L120.25-27.44Q118.47-26.59 117.14-25.03L117.14-25.03L117.14-25.03Q115.81-23.47 115.05-21.23L115.05-21.23L115.05-21.23Q114.28-19 114.28-16.25L114.28-16.25L114.28-16.25Q114.28-13.53 115.05-11.34L115.05-11.34L115.05-11.34Q115.81-9.16 117.16-7.61L117.16-7.61L117.16-7.61Q118.50-6.06 120.27-5.23L120.27-5.23L120.27-5.23Q122.03-4.41 124.06-4.41L124.06-4.41L124.06-4.41Q127.06-4.41 129.28-5.86L129.28-5.86L129.28-5.86Q131.50-7.31 132.81-10.13L132.81-10.13L137.63-7.75L137.63-7.75Q136.69-5.75 135.31-4.16L135.31-4.16L135.31-4.16Q133.94-2.56 132.20-1.44L132.20-1.44L132.20-1.44Q130.47-0.31 128.39 0.30L128.39 0.30L128.39 0.30Q126.31 0.91 124 0.91L124 0.91L124 0.91Q120.63 0.91 117.77-0.36L117.77-0.36L117.77-0.36Q114.91-1.63 112.83-3.91L112.83-3.91L112.83-3.91Q110.75-6.19 109.59-9.34L109.59-9.34L109.59-9.34Q108.44-12.50 108.44-16.25L108.44-16.25L108.44-16.25Q108.44-20 109.66-23.16L109.66-23.16L109.66-23.16Q110.88-26.31 113-28.58L113-28.58L113-28.58Q115.13-30.84 117.97-32.13L117.97-32.13L117.97-32.13Q120.81-33.41 124.06-33.41L124.06-33.41L124.06-33.41Q127.13-33.41 129.86-32.34L129.86-32.34L129.86-32.34Q132.59-31.28 134.66-29.13L134.66-29.13L137.94-29.13L137.94-23.75ZM143.38-43.25L143.38-48.63L154.78-48.63L154.78-43.25L154.72-43.25L154.72-19.06L160.34-19.06L168.03-27L166.09-27L166.09-32.38L178.38-32.38L178.38-27L174.28-27L164.44-16.84L175.19-5.38L179.09-5.38L179.09 0L172.25 0L159-14.47L154.72-14.47L154.72-5.38L157.41-5.38L157.41 0L143.56 0L143.56-5.38L148.88-5.38L148.88-43.25L143.38-43.25ZM183.56-43.25L183.56-48.63L194.06-48.63L194.06-5.38L198.94-5.38L198.94 0L183.56 0L183.56-5.38L188.25-5.38L188.25-43.25L183.56-43.25ZM233.44-15.44L210.13-15.44L210.13-15.44Q210.13-14.06 210.33-12.92L210.33-12.92L210.33-12.92Q210.53-11.78 210.91-10.75L210.91-10.75L210.91-10.75Q212.06-7.63 214.61-6.05L214.61-6.05L214.61-6.05Q217.16-4.47 220.38-4.47L220.38-4.47L220.38-4.47Q222.91-4.47 225.30-5.17L225.30-5.17L225.30-5.17Q227.69-5.88 230.31-7.38L230.31-7.38L232.66-3.41L232.66-3.41Q229.47-1.22 226.25-0.16L226.25-0.16L226.25-0.16Q223.03 0.91 219.56 0.91L219.56 0.91L219.56 0.91Q216.28 0.91 213.48-0.19L213.48-0.19L213.48-0.19Q210.69-1.28 208.67-3.44L208.67-3.44L208.67-3.44Q206.66-5.59 205.52-8.81L205.52-8.81L205.52-8.81Q204.38-12.03 204.38-16.31L204.38-16.31L204.38-16.31Q204.38-19.78 205.34-22.86L205.34-22.86L205.34-22.86Q206.31-25.94 208.23-28.23L208.23-28.23L208.23-28.23Q210.16-30.53 213-31.88L213-31.88L213-31.88Q215.84-33.22 219.63-33.22L219.63-33.22L219.63-33.22Q223.28-33.22 225.73-32.11L225.73-32.11L225.73-32.11Q228.19-31 229.73-29.17L229.73-29.17L229.73-29.17Q231.28-27.34 232.08-25L232.08-25L232.08-25Q232.88-22.66 233.19-20.22L233.19-20.22L233.19-20.22Q233.34-19.03 233.39-17.81L233.39-17.81L233.39-17.81Q233.44-16.59 233.44-15.44L233.44-15.44ZM219.22-28.34L219.22-28.34L219.22-28.34Q217.19-28.34 215.67-27.77L215.67-27.77L215.67-27.77Q214.16-27.19 213.09-26.11L213.09-26.11L213.09-26.11Q212.03-25.03 211.39-23.47L211.39-23.47L211.39-23.47Q210.75-21.91 210.44-19.97L210.44-19.97L227.22-19.97L227.22-19.97Q227.09-21.78 226.64-23.31L226.64-23.31L226.64-23.31Q226.19-24.84 225.25-25.97L225.25-25.97L225.25-25.97Q224.31-27.09 222.84-27.72L222.84-27.72L222.84-27.72Q221.38-28.34 219.22-28.34Z" fill="url(#editing-outline-gradient)"></path></g></g><style>text {
  font-size: 64px;
  font-family: Arial Black;
  dominant-baseline: central;
  text-anchor: middle;
}</style></svg>